<?xml version="1.0" standalone="no"?>
<!DOCTYPE svg PUBLIC "-//W3C//DTD SVG 20010904//EN"
 "http://www.w3.org/TR/2001/REC-SVG-20010904/DTD/svg10.dtd">
<svg version="1.0" xmlns="http://www.w3.org/2000/svg"
 width="260.000000pt" height="260.000000pt" viewBox="0 0 260.000000 260.000000"
 preserveAspectRatio="xMidYMid meet">
<metadata>
Created by potrace 1.11, written by Peter Selinger 2001-2013
</metadata>
<g transform="translate(0.000000,260.000000) scale(0.100000,-0.100000)"
fill="#000000" stroke="none">
<path d="M1208 2593 c-25 -6 -1197 -1300 -1204 -1330 -4 -14 -1 -38 7 -54 8
-16 203 -201 435 -411 231 -211 514 -468 629 -573 114 -104 219 -198 234 -207
27 -19 58 -23 86 -12 27 11 1194 1302 1201 1329 3 14 3 36 0 50 -4 15 -233
231 -647 607 -353 321 -651 588 -663 595 -21 12 -47 14 -78 6z m260 -215 c220
-202 293 -268 592 -539 355 -320 478 -438 484 -464 3 -13 2 -34 -3 -47 -5 -13
-263 -303 -574 -645 -609 -669 -595 -655 -656 -616 -16 10 -123 104 -238 208
-392 356 -759 690 -886 805 -131 118 -149 146 -130 196 11 29 1131 1262 1152
1267 59 16 67 11 259 -165z"/>
<path d="M1055 1984 c-200 -39 -346 -182 -400 -389 -24 -95 -20 -248 10 -343
65 -205 207 -325 420 -352 83 -11 194 2 272 31 60 23 173 104 173 124 0 22
-50 75 -70 75 -10 0 -32 -11 -48 -25 -59 -49 -119 -69 -227 -73 -84 -3 -109 0
-157 18 -299 112 -324 628 -37 775 25 13 81 28 124 34 105 15 179 1 275 -51
l74 -41 33 38 c18 21 33 44 33 50 0 17 -55 58 -126 94 -101 50 -214 62 -349
35z"/>
<path d="M1728 1208 l-3 -403 -30 -60 c-42 -83 -78 -101 -202 -98 -103 2 -103
2 -106 -78 -2 -28 2 -33 28 -41 50 -14 196 -11 242 5 57 19 125 73 158 122 57
88 60 113 60 550 l0 400 -72 3 -71 3 -4 -403z"/>
</g>
</svg>
